<svg width="16" height="16" viewBox="0 0 16 16" fill="none" xmlns="http://www.w3.org/2000/svg">
<path d="M6.7754 11.1435H10.018C10.193 11.1435 10.321 11.085 10.4023 10.9681C10.4835 10.8512 10.5241 10.7067 10.5241 10.5344V9.18721H9.39949V10.0361H7.39394V6.34513H9.39949V7.21252H10.5241V5.86529C10.5241 5.69305 10.4835 5.54541 10.4023 5.42237C10.321 5.29934 10.193 5.23782 10.018 5.23782H6.7754C6.60046 5.23782 6.47238 5.29934 6.39116 5.42237C6.30994 5.54541 6.26933 5.69305 6.26933 5.86529V10.5344C6.26933 10.7067 6.30994 10.8512 6.39116 10.9681C6.47238 11.085 6.60046 11.1435 6.7754 11.1435ZM8.40609 15.5727C7.38144 15.5727 6.41303 15.3789 5.50085 14.9913C4.58866 14.6038 3.79207 14.0747 3.11105 13.4042C2.43004 12.7337 1.89272 11.9493 1.49911 11.0512C1.1055 10.153 0.908691 9.19952 0.908691 8.19064C0.908691 7.16946 1.1055 6.20979 1.49911 5.31164C1.89272 4.41349 2.43004 3.63223 3.11105 2.96784C3.79207 2.30346 4.58866 1.77749 5.50085 1.38993C6.41303 1.00237 7.38144 0.808594 8.40609 0.808594C9.44323 0.808594 10.4179 1.00237 11.3301 1.38993C12.2423 1.77749 13.0357 2.30346 13.7105 2.96784C14.3853 3.63223 14.9195 4.41349 15.3131 5.31164C15.7067 6.20979 15.9035 7.16946 15.9035 8.19064C15.9035 9.19952 15.7067 10.153 15.3131 11.0512C14.9195 11.9493 14.3853 12.7337 13.7105 13.4042C13.0357 14.0747 12.2423 14.6038 11.3301 14.9913C10.4179 15.3789 9.44323 15.5727 8.40609 15.5727ZM8.40609 14.4654C10.1805 14.4654 11.6862 13.8533 12.9233 12.6291C14.1603 11.4049 14.7789 9.92542 14.7789 8.19064C14.7789 6.44355 14.1603 4.96099 12.9233 3.74296C11.6862 2.52492 10.1805 1.9159 8.40609 1.9159C6.6442 1.9159 5.1416 2.52492 3.89828 3.74296C2.65496 4.96099 2.0333 6.44355 2.0333 8.19064C2.0333 9.92542 2.65496 11.4049 3.89828 12.6291C5.1416 13.8533 6.6442 14.4654 8.40609 14.4654Z" fill="white"/>
</svg>
