<svg width="380" height="68" viewBox="0 0 380 68" fill="none" xmlns="http://www.w3.org/2000/svg">
<path d="M46.1996 40.8095C45.8799 40.8521 45.5814 40.8735 45.2617 40.8948C45.0698 40.9161 44.8993 40.9161 44.7075 40.9161C40.7426 40.9161 37.2467 38.955 35.1364 35.9707C34.9659 35.7362 34.7953 35.4804 34.6461 35.2246C34.4756 35.2246 34.2837 35.2246 34.1132 35.2246C31.001 35.2246 28.102 36.1199 25.6506 37.676C25.6719 37.9105 25.6719 38.1663 25.6932 38.4221C25.6932 38.5286 25.6932 38.6352 25.6932 38.7205C25.6932 43.6872 22.9648 48.0358 18.9146 50.3166C18.7015 50.4445 18.4883 50.5511 18.2751 50.6577C18.2751 50.7856 18.2751 50.9348 18.2751 51.0627C18.2751 59.8024 25.3522 66.8794 34.0919 66.8794C42.8316 66.8794 49.9087 59.8024 49.9087 51.0627C49.93 47.1192 48.5231 43.5593 46.1996 40.8095ZM34.1132 56.0294C31.3421 56.0294 29.1039 53.7912 29.1039 51.0201C29.1039 48.2489 31.3421 46.0107 34.1132 46.0107C36.8843 46.0107 39.1226 48.2489 39.1226 51.0201C39.1226 53.7912 36.863 56.0294 34.1132 56.0294Z" fill="white"/>
<path d="M85.9974 29.2148C85.6777 29.2148 85.3793 29.2148 85.0808 29.2362C85.0808 29.2788 85.0808 29.3214 85.0808 29.3427C84.9742 37.1872 78.6006 43.4968 70.7349 43.4968C70.0528 43.4968 69.392 43.4542 68.7312 43.3476C68.6885 43.3476 68.6459 43.3263 68.6246 43.3263C68.3901 44.4774 68.2622 45.6924 68.2622 46.9288C68.2622 56.7343 76.2132 64.664 85.9974 64.664C95.803 64.664 103.733 56.713 103.733 46.9288C103.733 37.1659 95.803 29.2148 85.9974 29.2148ZM85.9974 51.9381C83.2476 51.9381 81.0307 49.7212 81.0307 46.9714C81.0307 44.2216 83.2476 42.0047 85.9974 42.0047C88.7472 42.0047 90.9642 44.2216 90.9642 46.9714C90.9642 49.6999 88.7472 51.9381 85.9974 51.9381Z" fill="white"/>
<path d="M46.1996 40.8095C45.8799 40.8521 45.5814 40.8735 45.2617 40.8948C45.0698 40.9161 44.8993 40.9161 44.7075 40.9161C40.7426 40.9161 37.2467 38.955 35.1364 35.9707C34.9659 35.7362 34.7953 35.4804 34.6461 35.2246C34.4756 35.2246 34.2837 35.2246 34.1132 35.2246C31.001 35.2246 28.102 36.1199 25.6506 37.676C25.6719 37.9105 25.6719 38.1663 25.6932 38.4221C25.6932 38.5286 25.6932 38.6352 25.6932 38.7205C25.6932 43.6872 22.9648 48.0358 18.9146 50.3166C18.7015 50.4445 18.4883 50.5511 18.2751 50.6577C18.2751 50.7856 18.2751 50.9348 18.2751 51.0627C18.2751 59.8024 25.3522 66.8794 34.0919 66.8794C42.8316 66.8794 49.9087 59.8024 49.9087 51.0627C49.93 47.1192 48.5231 43.5593 46.1996 40.8095ZM34.1132 56.0294C31.3421 56.0294 29.1039 53.7912 29.1039 51.0201C29.1039 48.2489 31.3421 46.0107 34.1132 46.0107C36.8843 46.0107 39.1226 48.2489 39.1226 51.0201C39.1226 53.7912 36.863 56.0294 34.1132 56.0294Z" fill="white"/>
<path d="M44.7074 18.6621C43.3645 18.6621 42.0855 18.9179 40.9131 19.3656C40.8918 19.6213 40.8492 19.8771 40.8279 20.1329C40.231 24.1831 38.0141 27.7216 34.8593 30.0664C34.6461 30.2156 34.4543 30.3648 34.2411 30.514C34.3903 31.7717 34.774 32.9867 35.3282 34.0739C35.5627 34.5002 35.8185 34.9265 36.0956 35.3315C38.0141 38.0387 41.1476 39.7866 44.7074 39.7866C44.878 39.7866 45.0485 39.7866 45.1977 39.7653C45.219 39.7653 45.219 39.7653 45.2404 39.7653C45.7306 39.744 46.2209 39.6801 46.6899 39.5948C51.5713 38.6569 55.2591 34.3723 55.2591 29.2137C55.2591 23.3943 50.5268 18.6621 44.7074 18.6621ZM44.7074 34.351C41.851 34.351 39.5276 32.0275 39.5276 29.1711C39.5276 26.3147 41.851 23.9912 44.7074 23.9912C47.5638 23.9912 49.8873 26.3147 49.8873 29.1711C49.8873 32.0275 47.5638 34.351 44.7074 34.351Z" fill="white"/>
<path d="M83.8659 28.1738C83.8445 28.0032 83.8446 27.8327 83.8232 27.6622C83.6953 27.6409 83.5674 27.6409 83.4609 27.6195C77.5136 26.7456 72.7387 22.2265 71.5024 16.4071C71.481 16.2792 71.4597 16.1727 71.4384 16.0448C71.2253 16.0234 70.9908 16.0234 70.7563 16.0234C63.4874 16.0234 57.5828 21.9281 57.5828 29.197C57.5828 35.4427 61.9313 40.6865 67.772 42.0294C68.1557 42.1147 68.5394 42.1786 68.9231 42.2426C69.5199 42.3279 70.1381 42.3705 70.7563 42.3705C77.9825 42.3705 83.8446 36.5724 83.9298 29.3675C83.9298 29.3035 83.9298 29.2609 83.9298 29.197C83.9085 28.8346 83.8872 28.5148 83.8659 28.1738ZM75.318 31.3499C74.6998 32.6289 73.5701 33.6308 72.1845 34.0358C71.7155 34.185 71.2253 34.2489 70.735 34.2489C67.9212 34.2489 65.6617 31.9681 65.6617 29.1756C65.6617 26.3619 67.9425 24.1023 70.735 24.1023C73.5487 24.1023 75.8083 26.3832 75.8083 29.1756C75.8083 29.9644 75.6377 30.6891 75.318 31.3499Z" fill="white"/>
<path d="M85.9974 29.2148C85.6777 29.2148 85.3793 29.2148 85.0808 29.2362C85.0808 29.2788 85.0808 29.3214 85.0808 29.3427C84.9742 37.1872 78.6006 43.4968 70.7349 43.4968C70.0528 43.4968 69.392 43.4542 68.7312 43.3476C68.6885 43.3476 68.6459 43.3263 68.6246 43.3263C68.3901 44.4774 68.2622 45.6924 68.2622 46.9288C68.2622 56.7343 76.2132 64.664 85.9974 64.664C95.803 64.664 103.733 56.713 103.733 46.9288C103.733 37.1659 95.803 29.2148 85.9974 29.2148ZM85.9974 51.9381C83.2476 51.9381 81.0307 49.7212 81.0307 46.9714C81.0307 44.2216 83.2476 42.0047 85.9974 42.0047C88.7472 42.0047 90.9642 44.2216 90.9642 46.9714C90.9642 49.6999 88.7472 51.9381 85.9974 51.9381Z" fill="white"/>
<path d="M24.521 38.4183V38.397C24.521 37.9494 24.4784 37.4804 24.4144 37.0541C24.2226 35.5406 23.7323 34.1337 23.0288 32.8547C22.6238 32.7908 22.2188 32.6842 21.8351 32.5989C18.7229 31.7676 15.9944 29.9983 13.9907 27.5683C13.7349 27.2485 13.4791 26.9288 13.2446 26.5877C12.9675 26.5664 12.6904 26.5664 12.392 26.5664C5.69861 26.5664 0.262939 32.0021 0.262939 38.6954C0.262939 45.3888 5.69861 50.8245 12.392 50.8245C14.076 50.8245 15.696 50.4834 17.1455 49.8439C17.5505 49.6734 17.9555 49.4815 18.3392 49.247C18.3605 49.247 18.3606 49.2257 18.3819 49.2257C22.0483 47.1367 24.521 43.1932 24.521 38.6741C24.521 38.5888 24.521 38.5036 24.521 38.4183ZM12.392 39.8891C11.7311 39.8891 11.1769 39.3562 11.1769 38.6741C11.1769 38.0133 11.7098 37.4591 12.392 37.4591C13.0528 37.4591 13.607 37.992 13.607 38.6741C13.607 39.3562 13.0528 39.8891 12.392 39.8891Z" fill="#FEBD59"/>
<path d="M25.7359 3.76367C17.9554 3.76367 11.6671 10.0733 11.6671 17.8325C11.6671 20.6462 12.4985 23.2682 13.9053 25.4638C14.2038 25.9327 14.5448 26.3804 14.8859 26.8067C16.7191 29.0236 19.2557 30.6863 22.1335 31.4537C22.6664 31.6029 23.2206 31.7095 23.7748 31.7734C24.4143 31.8587 25.0751 31.9013 25.7359 31.9013C28.4005 31.9013 30.8732 31.1552 33.0048 29.8976C33.4098 29.6631 33.7935 29.4073 34.1559 29.1302C37.0549 26.9559 39.1013 23.6945 39.6555 19.9428C39.7195 19.4738 39.7834 19.0049 39.8047 18.5146C39.8261 18.3014 39.8261 18.067 39.8261 17.8325C39.8047 10.0733 33.4951 3.76367 25.7359 3.76367ZM25.7359 19.0262C25.0751 19.0262 24.5422 18.4933 24.5422 17.8325C24.5422 17.1717 25.0751 16.6388 25.7359 16.6388C26.3967 16.6388 26.9296 17.1717 26.9296 17.8325C26.9296 18.4933 26.3754 19.0262 25.7359 19.0262Z" fill="#FEBD59"/>
<path d="M85.5286 0.181641C78.2384 0.181641 72.3338 6.08628 72.3338 13.3765C72.3338 13.9094 72.3551 14.421 72.419 14.9326C72.4617 15.3376 72.5256 15.7426 72.6109 16.1476C73.7406 21.498 78.1318 25.6547 83.6101 26.4434C84.0152 26.5074 84.4202 26.55 84.8252 26.5713C85.0596 26.5926 85.2941 26.5926 85.5286 26.5926C92.8188 26.5926 98.7235 20.688 98.7235 13.3978C98.7448 6.08628 92.8188 0.181641 85.5286 0.181641ZM85.5286 14.5702C84.8678 14.5702 84.3349 14.0373 84.3349 13.3765C84.3349 12.7157 84.8678 12.1828 85.5286 12.1828C86.1894 12.1828 86.7223 12.7157 86.7223 13.3765C86.7436 14.0373 86.1894 14.5702 85.5286 14.5702Z" fill="#FEBD59"/>
<path d="M379.716 63.957H117.929V64.7031H379.716V63.957Z" fill="white"/>
<path d="M351.045 66.4727H146.621V67.2187H351.045V66.4727Z" fill="white"/>
<path d="M281.044 13.2266V13.2484H280.957C280.979 13.2484 281.001 13.2266 281.001 13.2266C281.023 13.2484 281.023 13.2266 281.044 13.2266Z" fill="white"/>
<path d="M379.716 12.4961H304.128V13.2422H379.716V12.4961Z" fill="white"/>
<path d="M192.686 10.0059H146.621V10.7519H192.686V10.0059Z" fill="white"/>
<path d="M192.686 12.4961H117.929V13.2422H192.686V12.4961Z" fill="white"/>
<path d="M351.045 10.0059H304.128V10.7519H351.045V10.0059Z" fill="white"/>
<path d="M145.129 36.6949C145.086 36.0127 145.022 35.3306 144.937 34.6698C144.532 31.4937 143.552 28.5307 141.91 26.0154C141.889 25.9727 141.868 25.9301 141.825 25.8875C141.804 25.8448 141.761 25.8022 141.74 25.7596C141.377 25.2267 140.994 24.7364 140.567 24.2461C140.525 24.2035 140.503 24.1608 140.461 24.1182C140.418 24.0756 140.397 24.0329 140.354 23.9903C137.135 20.4944 132.147 18.2988 124.793 18.2988H117.951V58.8852H124.793C140.034 58.8852 145.193 49.1436 145.193 38.592C145.193 37.9739 145.172 37.3344 145.129 36.6949ZM138.222 39.4447C138.201 40.1694 138.18 40.8516 138.116 41.5124C137.54 47.7581 134.961 51.2326 129.803 52.5329C128.843 52.7674 127.799 52.938 126.648 53.0232C125.902 53.0872 125.134 53.1085 124.324 53.1085V24.1182C126.733 24.1182 128.801 24.3953 130.527 24.9709C131.401 25.248 132.19 25.6103 132.915 26.0367C135.025 27.2943 136.475 29.2128 137.306 31.7708C137.434 32.1332 137.54 32.5169 137.626 32.9006C138.031 34.5632 138.222 36.4604 138.222 38.6133C138.222 38.8905 138.222 39.1676 138.222 39.4447Z" fill="white"/>
<path d="M154.807 55.2174C154.807 57.2424 153.165 58.9051 151.119 58.9051C150.714 58.9051 150.33 58.8412 149.989 58.7346C149.691 58.628 149.414 58.5001 149.158 58.3509C148.156 57.7114 147.495 56.6243 147.452 55.3879C147.452 55.3666 147.452 55.3453 147.452 55.3026V55.2174C147.474 53.9597 148.113 52.8513 149.094 52.1904C149.115 52.1691 149.136 52.1691 149.158 52.1478C149.179 52.1265 149.2 52.1265 149.222 52.1052C149.776 51.7641 150.415 51.5723 151.119 51.5723C151.673 51.5723 152.185 51.7002 152.654 51.9133C152.931 52.0412 153.187 52.2118 153.421 52.4036C154.274 53.0431 154.807 54.0663 154.807 55.2174Z" fill="white"/>
<path d="M175.377 58.9048H166.126L161.67 53.533L161.628 53.4904L161.585 53.4478L160.285 51.8917L160.242 51.849L160.2 51.8064L158.473 49.7174L158.43 49.6748L158.388 49.6321L157.727 48.8434L157.684 48.8008L157.642 48.7582L154.956 45.5181L154.188 44.5801L154.146 44.5162L150.906 40.4448L150.863 40.3808L150.799 40.3169L150.074 39.4216L150.01 39.3576L149.946 39.2724L149.179 38.3131H157.066C157.301 38.3131 157.535 38.3131 157.77 38.2918H157.812C157.834 38.2918 157.834 38.2918 157.855 38.2918C158.132 38.2705 158.388 38.2492 158.665 38.2279C158.686 38.2279 158.686 38.2279 158.708 38.2279C158.729 38.2279 158.729 38.2279 158.75 38.2279C159.475 38.1426 160.2 37.9721 160.86 37.6736C160.882 37.6736 160.882 37.6523 160.903 37.6523C160.946 37.8655 160.967 38.0786 161.01 38.2918C160.988 38.1852 160.967 38.0786 160.967 37.9721C160.946 37.8655 160.924 37.7589 160.924 37.6523C160.946 37.6523 160.946 37.631 160.967 37.631C161.521 37.3965 162.054 37.0555 162.502 36.6078C162.523 36.5865 162.523 36.5865 162.544 36.5652C162.566 36.5439 162.566 36.5439 162.587 36.5226C163.61 35.4781 164.271 33.8793 164.271 31.364C164.271 25.2249 160.264 24.4148 157.087 24.4148H148.54V18.3184H158.303C158.708 18.3184 159.113 18.3397 159.496 18.361C159.603 18.361 159.731 18.3823 159.837 18.3823C160.583 18.5528 161.351 18.6807 162.118 18.7873C163.184 19.0644 164.165 19.4694 165.06 19.981C165.081 20.0024 165.124 20.0237 165.145 20.0237C166.552 20.8337 167.724 21.8782 168.662 23.0506C168.684 23.0719 168.684 23.0719 168.705 23.0932C168.726 23.1145 168.726 23.1359 168.748 23.1359C169.153 23.6475 169.515 24.2017 169.835 24.7559C169.835 24.7772 169.856 24.7985 169.856 24.7985C169.856 24.8199 169.877 24.8199 169.877 24.8412C171.028 26.9089 171.583 29.211 171.583 31.3427C171.583 32.8988 171.391 34.7533 170.773 36.5226C170.773 36.5439 170.751 36.5652 170.751 36.5865C170.751 36.6078 170.73 36.6291 170.73 36.6504C169.856 39.0805 168.215 41.3827 165.23 42.5977C165.209 42.5977 165.209 42.619 165.188 42.619C165.166 42.619 165.145 42.6404 165.145 42.6404C164.57 42.8748 163.93 43.0667 163.227 43.2159C163.205 43.2159 163.205 43.2159 163.184 43.2372C163.163 43.2585 163.163 43.2372 163.141 43.2585C162.864 43.3225 162.566 43.3651 162.267 43.4077L163.12 44.4096L163.163 44.4522L163.205 44.5162L166.467 48.3745L166.531 48.4597L167.064 49.0779L167.085 49.1205L167.106 49.1632L175.377 58.9048Z" fill="white"/>
<path d="M161.031 37.9755C161.052 38.082 161.052 38.1884 161.073 38.2948C161.052 38.082 161.009 37.8691 160.967 37.6562C160.988 37.7627 161.009 37.8691 161.031 37.9755Z" fill="white"/>
<path d="M162.182 18.7898C161.415 18.6832 160.647 18.5553 159.901 18.3848C160.093 18.4061 160.264 18.4274 160.456 18.4487C160.882 18.5127 161.287 18.5766 161.671 18.6619C161.841 18.7045 162.012 18.7471 162.182 18.7898Z" fill="white"/>
<path d="M242.801 58.9083H236.427L236.363 58.4819L235.34 51.746L234.21 44.2639V44.2213V44.1786L233.72 41.0238V40.9812V40.9172L233.293 38.1035L231.823 41.8125L231.801 41.8765L231.759 41.9404L230.266 45.7134L230.245 45.7561L230.224 45.82L227.922 51.6607L227.9 51.7033L227.879 51.7673L226.515 55.2418L226.493 55.2845L226.472 55.3484L224.937 59.1854H223.893L219.182 47.2056V47.1629L219.161 47.1203L217.924 44.0081L217.882 43.9015L216.048 39.2332L216.027 39.1906L216.006 39.1267L215.665 38.2314L215.643 38.1887L215.622 38.1248L215.601 38.1035V38.1248V38.1674L215.58 38.2314L215.473 39.0201L215.452 39.0627V39.1053L214.791 43.4113L214.769 43.4965L214.322 46.5021L214.301 46.5874L214.023 48.4419V48.4846L214.002 48.5272L213.981 48.7617L213.959 48.8256V48.8682L212.425 58.9083H206.051L208.46 44.7542V44.7116V44.6689L208.993 41.578V41.5354L209.014 41.4928L209.76 37.0377L209.781 36.9737V36.9311L209.931 36.0997V36.0571V36.0145L211.657 25.9744L213 18.0234H214.045L218.351 29.2145L221.996 38.679L222.017 38.7216L222.038 38.7856L222.315 39.553L222.337 39.5956L222.358 39.6383L223.978 43.8589L223.999 43.9228L224.021 43.9655L224.426 44.9887L224.852 43.8589L224.895 43.7523L226.749 38.9561L226.771 38.8922L226.792 38.8495L227.154 37.9116L227.176 37.869L227.197 37.805L234.85 18.0234H235.894L236.129 19.3877L238.068 30.9199L238.09 30.9625V31.0264L238.26 32.0283V32.0923L238.281 32.1562L239.155 37.2934V37.3574V37.4L239.433 38.9988L239.752 40.832V40.8746V40.9172L241.671 52.3002L242.779 58.8656L242.801 58.9083Z" fill="white"/>
<path d="M279.231 49.2733C279.231 49.4012 279.231 49.5077 279.231 49.6356V49.6783C279.231 49.6996 279.231 49.7209 279.231 49.7209C278.975 55.86 273.646 59.1641 267.698 59.1641C263.755 59.1641 259.939 57.3095 258.596 55.924V47.9303C259.513 49.6783 262.369 52.7478 266.249 52.8118C269.958 52.8757 272.111 51.2344 272.111 47.7598C272.111 46.8219 271.876 45.9053 271.471 45.0313C271.45 45.01 271.45 44.9674 271.429 44.946C271.408 44.9034 271.386 44.8821 271.386 44.8395C269.489 40.9599 264.394 37.5066 261.602 33.0515C261.474 32.817 261.346 32.5612 261.218 32.3054C261.197 32.2841 261.197 32.2628 261.197 32.2628C261.197 32.2415 261.176 32.2202 261.176 32.2202C260.962 31.7725 260.728 31.3035 260.494 30.7706V30.7493C260.408 30.5362 260.302 30.323 260.216 30.1098C259.897 29.1293 259.726 28.1061 259.726 27.019C259.726 25.0792 260.152 23.4378 260.941 22.1375C260.962 22.1162 260.962 22.0949 260.984 22.0736C261.005 22.0522 261.005 22.0309 261.026 22.0096C261.922 20.5388 263.286 19.473 264.949 18.8335C264.97 18.8335 264.97 18.8121 264.991 18.8121C265.013 18.8121 265.013 18.7908 265.034 18.7908C265.29 18.6842 265.546 18.599 265.801 18.535C265.823 18.535 265.823 18.5137 265.844 18.5137C265.865 18.5137 265.865 18.5137 265.887 18.4924C267.016 18.1727 268.253 18.0234 269.574 18.0234C272.132 18.0234 274.797 18.5563 276.651 19.3024V26.5926C275.5 25.5055 273.454 24.397 270.981 24.397C269.404 24.397 268.231 24.8234 267.507 25.5268C267.485 25.5481 267.485 25.5481 267.464 25.5694C267.443 25.5908 267.443 25.5908 267.421 25.6121C267.187 25.8466 266.995 26.145 266.888 26.4434C266.867 26.4647 266.867 26.486 266.867 26.5074C266.867 26.5287 266.846 26.55 266.846 26.5713C266.718 26.9124 266.675 27.2534 266.675 27.6584C266.675 29.3638 268.466 31.197 270.683 33.4778C270.768 33.5631 270.853 33.6484 270.939 33.7336C271.045 33.8402 271.13 33.9255 271.237 34.032C272.26 35.0765 273.369 36.2063 274.392 37.464C274.477 37.5492 274.541 37.6345 274.626 37.7411C274.69 37.805 274.733 37.8903 274.797 37.9543C276.63 40.2351 278.229 42.8783 278.911 46.0119C278.911 46.0332 278.932 46.0545 278.932 46.0758C278.932 46.0971 278.932 46.1184 278.954 46.1397C279.103 47.1203 279.231 48.1861 279.231 49.2733Z" fill="white"/>
<path d="M261.581 33.053C261.431 32.8185 261.282 32.584 261.154 32.3282C261.133 32.2856 261.112 32.2643 261.112 32.2216C260.856 31.7527 260.621 31.2624 260.43 30.7721V30.7508C260.344 30.5377 260.259 30.3245 260.195 30.1113C260.28 30.3245 260.366 30.5377 260.472 30.7508V30.7721C260.707 31.305 260.941 31.774 261.154 32.2216C261.176 32.243 261.176 32.2643 261.176 32.2643C261.176 32.2856 261.197 32.3069 261.197 32.3069C261.325 32.5627 261.453 32.8185 261.581 33.053Z" fill="white"/>
<path d="M353.347 38.6147C353.347 44.9031 350.768 50.5945 346.505 54.3889C346.483 54.3889 346.483 54.4102 346.462 54.4102C346.441 54.4315 346.441 54.4315 346.419 54.4528C343.051 57.4158 338.66 59.2064 333.63 59.2064C331.285 59.2064 329.089 58.8227 327.064 58.0979C327.043 58.0979 327.022 58.0766 327.022 58.0766C327 58.0766 327 58.0766 326.979 58.0553C321.735 56.1794 317.685 52.108 315.553 46.9708C316.342 46.2673 317.109 45.5639 317.898 44.8604C317.898 44.8604 317.898 44.8604 317.919 44.8604L317.941 44.8391C317.941 44.8391 317.941 44.8391 317.962 44.8178C318.261 44.562 318.58 44.3062 318.879 44.0504C318.9 44.0504 318.9 44.0291 318.921 44.0078L318.879 43.9651L318.921 43.9865L318.943 43.9651C319.305 43.6454 319.667 43.3256 320.051 42.9633L320.072 42.942C320.35 42.6648 320.627 42.409 320.904 42.1319L320.925 42.1106C321.01 42.0254 321.096 41.9614 321.181 41.8761C324.08 39.2755 326.979 36.6749 329.899 34.0743C330.219 33.7759 330.539 33.648 330.986 33.6267C333.459 33.5627 336.294 31.1966 336.763 28.8518C337.211 26.6562 335.719 25.1854 333.416 25.4838C332.287 25.6331 331.157 26.166 330.198 26.9334C330.176 26.9547 330.155 26.976 330.134 26.976L330.07 27.0399C328.94 27.9779 328.109 29.2142 327.874 30.5358L327.192 31.623C325.636 32.8593 324.101 34.117 322.545 35.3533C322.502 35.3746 322.46 35.4173 322.439 35.4386C322.396 35.4812 322.353 35.5025 322.289 35.5452C321.863 35.8862 321.415 36.2486 320.989 36.5897C320.179 37.2292 319.39 37.89 318.58 38.5295C317.109 39.7019 315.66 40.8956 314.189 42.068C314.019 40.9169 313.912 39.7445 313.912 38.5508C313.912 38.4655 313.912 38.3589 313.912 38.2737V38.2097C313.912 38.1884 313.912 38.1671 313.912 38.1458C313.912 37.7621 313.933 37.3997 313.955 37.0373C313.955 37.016 313.955 36.9947 313.955 36.9734C313.955 36.952 313.955 36.9307 313.955 36.9094C314.424 30.3227 317.728 24.5246 322.844 21.1353C322.865 21.114 322.886 21.114 322.886 21.0927C322.907 21.0713 322.929 21.0713 322.929 21.05C323.227 20.8582 323.526 20.6663 323.845 20.4958C323.867 20.4745 323.888 20.4745 323.888 20.4745C323.909 20.4532 323.931 20.4532 323.931 20.4532C325.359 19.6431 326.894 19.0037 328.556 18.5986C328.578 18.5986 328.578 18.5986 328.599 18.5773C328.62 18.5773 328.62 18.5773 328.642 18.556C329.622 18.3002 330.645 18.1297 331.711 18.0444C331.732 18.0444 331.754 18.0444 331.754 18.0444C331.775 18.0444 331.775 18.0444 331.796 18.0444C332.372 18.0018 332.969 17.9805 333.566 17.9805H333.779C333.8 17.9805 333.821 17.9805 333.821 17.9805C335.271 17.9805 336.657 18.151 338 18.4494C338.063 18.4707 338.127 18.4707 338.191 18.4921C338.255 18.5134 338.319 18.5134 338.383 18.5347C342.007 19.4087 345.162 21.3058 347.592 23.8638C347.613 23.8851 347.634 23.9064 347.634 23.9277C347.656 23.9491 347.677 23.9704 347.698 23.9917C348.018 24.3328 348.317 24.6738 348.594 25.0149C348.615 25.0362 348.636 25.0575 348.636 25.0788C348.658 25.1001 348.679 25.1215 348.679 25.1428C349.723 26.4431 350.597 27.8713 351.301 29.4274C350.32 30.3013 349.34 31.1753 348.359 32.0493C347.507 32.8167 346.654 33.5841 345.78 34.3515C342.561 37.2505 339.321 40.1282 336.102 43.0272C335.783 43.3043 335.463 43.4536 335.015 43.4536C332.543 43.5175 329.707 45.8836 329.238 48.2284C328.812 50.424 330.283 51.8948 332.585 51.5964C335.207 51.2553 337.936 48.8253 338.17 46.246C338.191 46.0328 338.383 45.8197 338.575 45.6705C341.133 43.6028 343.712 41.5351 346.27 39.4674C347.379 38.5721 348.487 37.6768 349.617 36.7602C350.683 35.8862 351.749 35.0336 352.836 34.1809C353.219 35.6518 353.347 37.1226 353.347 38.6147Z" fill="white"/>
<path d="M318.878 43.9844C318.899 43.9844 318.899 43.9844 318.878 43.9844L318.92 44.0057C318.899 44.0269 318.878 44.0482 318.878 44.0482C318.58 44.3037 318.26 44.5591 317.962 44.8145C318.26 44.5378 318.558 44.2824 318.856 44.0057C318.856 44.0269 318.878 44.0057 318.878 43.9844Z" fill="white"/>
<path d="M320.051 42.9412C320.35 42.6854 320.627 42.4083 320.925 42.1738C320.648 42.4509 320.371 42.7281 320.094 42.9838C320.094 42.9838 320.094 43.0052 320.073 43.0052C319.689 43.3462 319.327 43.6873 318.964 44.007C318.964 44.007 318.964 44.007 318.943 44.0283L318.9 44.007L318.922 43.9857C319.092 43.8365 319.263 43.6873 319.433 43.5168C319.646 43.3249 319.838 43.1331 320.051 42.9412C320.051 42.9625 320.03 42.9625 320.051 42.9412Z" fill="white"/>
<path d="M327.895 30.5781C327.873 30.6846 327.852 30.791 327.852 30.8761C327.831 31.089 327.639 31.3018 327.448 31.4508C327.362 31.5147 327.277 31.5785 327.192 31.6637L327.895 30.5781Z" fill="white"/>
<path d="M371.765 19.0644C370.358 18.5742 368.738 18.3184 366.904 18.3184H357.397V58.9048H363.771V47.4792H366.904C370.208 47.4792 372.809 46.6052 374.813 45.0704C374.834 45.0491 374.834 45.0491 374.855 45.0491C374.877 45.0278 374.877 45.0278 374.898 45.0278C375.111 44.8573 375.324 44.6867 375.516 44.4949C375.538 44.4949 375.538 44.4736 375.559 44.4736L375.601 44.4309C376.731 43.3651 377.627 42.0435 378.287 40.5087C378.309 40.4874 378.309 40.4661 378.309 40.4661C378.309 40.4448 378.33 40.4234 378.33 40.4021C378.842 39.2297 379.204 37.9507 379.417 36.5865C379.417 36.5652 379.417 36.5439 379.438 36.5226C379.438 36.5012 379.438 36.4799 379.46 36.4586C379.63 35.3501 379.737 34.1777 379.737 32.9627C379.673 26.1841 377.179 20.9616 371.765 19.0644ZM372.766 33.2398C372.766 33.2611 372.766 33.2825 372.766 33.3038C372.766 33.3251 372.766 33.3464 372.766 33.3677C372.702 35.478 372.233 37.1407 371.402 38.3558C371.402 38.3771 371.381 38.3771 371.381 38.3984C371.381 38.4197 371.36 38.4197 371.36 38.441C371.21 38.6755 371.04 38.8887 370.848 39.0805C370.827 39.1018 370.827 39.1018 370.805 39.1231L370.763 39.1658C369.548 40.4661 367.8 41.0843 365.689 41.0843H363.771V24.6706H365.689C366.478 24.6706 367.224 24.7559 367.906 24.9478C367.949 24.9691 367.992 24.9691 368.034 24.9904C368.077 25.0117 368.119 25.0117 368.162 25.033C369.633 25.502 370.805 26.3973 371.594 27.7828C371.615 27.8255 371.637 27.8681 371.658 27.9107C371.679 27.9534 371.701 27.996 371.722 28.0173C372.383 29.275 372.745 30.9163 372.745 32.8988C372.788 33.0267 372.788 33.1332 372.766 33.2398Z" fill="white"/>
<path d="M309.883 18.3184V58.9048H303.51V39.0805H289.654V58.9048H283.28V18.3184H289.654V33.2825H303.51V18.3184H309.883Z" fill="white"/>
<path d="M202.001 18.3184V45.9657C202.001 53.8315 198.186 57.775 192.707 58.8621C192.644 58.8834 192.58 58.8834 192.516 58.9048C192.452 58.9261 192.388 58.9261 192.324 58.9474C191.365 59.1179 190.341 59.1819 189.297 59.1819C182.049 59.1819 176.614 55.3662 176.614 45.9657V18.3184H182.987V44.2391C182.987 49.5682 184.309 52.8296 189.297 52.8296C190.512 52.8296 191.514 52.6377 192.324 52.2754C192.388 52.254 192.452 52.2114 192.516 52.1901C192.58 52.1475 192.644 52.1261 192.707 52.0835C194.946 50.8472 195.628 48.076 195.628 44.2604V18.3184H202.001Z" fill="white"/>
<path d="M203.259 0.181641V2.14275H201.085V13.2699H198.825V2.14275H196.651V0.181641H203.259Z" fill="#FEBD59"/>
<path d="M211.487 0.181641V13.2699H209.227V7.47184H206.84V13.2699H204.58V0.181641H206.84V5.51074H209.227V0.181641H211.487Z" fill="#FEBD59"/>
<path d="M232.782 8.81478C232.633 7.55711 231.993 6.81104 231.034 6.38471H231.013C232.1 5.93707 232.569 4.76466 232.569 3.65621C232.569 1.41799 231.503 0.181641 229.073 0.181641H225.726V13.2699H229.712C230.266 13.2273 230.735 13.0994 231.14 12.8862C231.354 12.7796 231.524 12.6517 231.695 12.5025C232.206 12.0762 232.505 11.458 232.675 10.7546C232.697 10.6267 232.718 10.4988 232.739 10.3709C232.76 10.243 232.782 10.1151 232.782 9.98718C232.803 9.81665 232.803 9.64612 232.803 9.47558C232.824 9.26242 232.824 9.02794 232.782 8.81478ZM228.007 2.03617H228.86C229.861 2.03617 230.33 2.67566 230.33 3.89069C230.33 4.48755 230.139 4.9352 229.819 5.21231C229.563 5.44679 229.201 5.55337 228.817 5.55337H228.007V2.03617ZM230.544 10.0085C230.522 10.1364 230.501 10.2643 230.458 10.3922C230.416 10.5414 230.373 10.648 230.309 10.7759C230.053 11.2235 229.627 11.4367 228.945 11.4367H228.007V7.4079H228.732C230.075 7.4079 230.586 8.09002 230.586 9.41164C230.565 9.6248 230.565 9.83796 230.544 10.0085Z" fill="#FEBD59"/>
<path d="M241.436 12.5025L241.117 10.7546L240.989 10.0085L239.539 2.18538L239.518 2.0788L239.177 0.181641H236.384L234.572 10.0085L234.445 10.7546L234.167 12.1828L234.103 12.5025L234.04 12.8862L233.976 13.2699H236.15L236.192 12.8862L236.235 12.5025L236.47 10.7546L236.512 10.3709H238.985L239.028 10.7546L239.262 12.5025L239.305 12.8862L239.347 13.2699H241.522L241.436 12.5025ZM236.853 8.40977L237.749 2.78224H237.791L238.687 8.40977H236.853Z" fill="#FEBD59"/>
<path d="M249.793 0.181641V13.2912H247.831L247.81 13.2699L247.554 12.5025L246.936 10.7546L246.808 10.3922L246.68 10.0085L244.954 5.10573H244.911V13.2912H242.886V0.181641H244.975L245.401 1.35404L247.703 7.66369H247.746V0.181641H249.793Z" fill="#FEBD59"/>
<path d="M258.745 6.64094V13.2917H257.658V13.2703L257.488 12.8866L257.402 12.6948L257.36 12.6095L257.317 12.5243L257.232 12.3111C257.168 12.3964 257.104 12.4603 257.061 12.5243C256.933 12.6735 256.806 12.8014 256.678 12.908C256.486 13.0785 256.294 13.1851 256.081 13.2917C255.782 13.4409 255.42 13.5048 254.972 13.5048C254.567 13.5048 254.184 13.4409 253.821 13.2917C253.565 13.2064 253.352 13.0785 253.139 12.908C252.99 12.8014 252.862 12.6735 252.734 12.5243C252.457 12.2045 252.244 11.7995 252.095 11.3305C252.052 11.16 252.009 10.9682 251.988 10.7763C251.967 10.6484 251.967 10.5205 251.945 10.3926V10.35C251.945 10.2647 251.924 10.2008 251.924 10.1155V3.35822C251.924 1.5037 253.011 -0.00976562 255.228 -0.00976562C257.488 -0.00976562 258.596 1.63159 258.596 3.5927V4.42404H256.465C256.465 2.46293 256.06 1.95134 255.186 1.95134C254.631 1.95134 254.184 2.27109 254.184 3.37954V10.1155C254.184 10.2008 254.184 10.286 254.205 10.3713C254.226 10.4992 254.226 10.6271 254.269 10.755C254.397 11.224 254.695 11.5011 255.249 11.5011C255.846 11.5011 256.187 11.2879 256.358 10.755C256.401 10.6484 256.422 10.5205 256.443 10.3713C256.464 10.2647 256.465 10.1368 256.486 9.98762C256.486 9.88103 256.486 9.77445 256.486 9.66787V8.38889H255.058V6.59831H258.745V6.64094Z" fill="#FEBD59"/>
<path d="M267.783 13.2701L267.655 12.524L267.336 10.7761L267.272 10.3924L267.208 10.0087L266.824 7.89834L266.803 7.79176L266.462 5.91592L266.44 5.83065L265.396 0.203125H262.603L260.791 10.03L260.728 10.4137V10.4563L260.664 10.7761L260.344 12.524L260.216 13.2701V13.2914H262.39V13.2701L262.433 12.8864L262.475 12.5027L262.71 10.7547L262.753 10.371H265.225V10.3924L265.247 10.5416L265.268 10.6908V10.7547L265.502 12.5027L265.545 12.8864L265.588 13.2701V13.2914L267.783 13.2701ZM263.072 8.40993L263.968 2.78241H264.01L264.906 8.40993H263.072Z" fill="#FEBD59"/>
<path d="M274.775 11.3301V13.2912H268.999V0.181641H271.237V11.3301H274.775Z" fill="#FEBD59"/>
<path d="M279.614 -0.00976562C277.248 -0.00976562 276.161 1.5037 276.161 3.35822V10.1155C276.161 10.2008 276.161 10.3074 276.161 10.3926C276.161 10.5205 276.182 10.6484 276.203 10.7763C276.31 11.4584 276.566 12.0553 277.035 12.5243C277.163 12.6735 277.312 12.8014 277.482 12.908C277.717 13.0572 277.973 13.1851 278.271 13.2917C278.655 13.4196 279.102 13.5048 279.614 13.5048C280.126 13.5048 280.573 13.4409 280.978 13.2917C281 13.2917 281.021 13.2703 281.021 13.2703C281.042 13.2703 281.064 13.249 281.064 13.249C281.319 13.1638 281.533 13.0359 281.724 12.908C281.895 12.8014 282.044 12.6735 282.172 12.5243C282.62 12.0553 282.897 11.4584 283.003 10.7763C283.025 10.6697 283.025 10.5632 283.046 10.4566C283.046 10.4353 283.046 10.4139 283.046 10.4139C283.046 10.3287 283.046 10.2221 283.046 10.1368V3.37954C283.046 1.5037 281.959 -0.00976562 279.614 -0.00976562ZM280.808 10.0516C280.808 10.1795 280.808 10.286 280.786 10.3926C280.765 10.5418 280.765 10.6484 280.722 10.7763C280.573 11.2666 280.254 11.5224 279.593 11.5224C278.932 11.5224 278.612 11.2879 278.463 10.7763C278.442 10.6697 278.42 10.5418 278.399 10.3926C278.378 10.286 278.378 10.1795 278.378 10.0516V3.40086C278.378 2.4203 278.676 1.95134 279.571 1.95134C280.488 1.95134 280.765 2.4203 280.765 3.40086V10.0516H280.808Z" fill="#FEBD59"/>
<path d="M285.242 13.2676L287.501 13.2889V13.2676H285.242ZM292.532 13.2676H290.251V13.2889L292.532 13.2676Z" fill="#FEBD59"/>
<path d="M292.404 12.8862L292.276 12.5025L291.722 10.7546L291.615 10.4348L291.594 10.3922L291.466 10.0085L290.613 7.34395C291.381 7.00288 292.191 6.15023 292.191 4.03991C292.191 3.27252 292.084 2.63303 291.892 2.12143C291.892 2.10012 291.871 2.10012 291.871 2.0788C291.359 0.735867 290.187 0.181641 288.375 0.181641H285.22V13.2699H287.48V7.91949C287.885 7.91949 288.354 7.89817 288.631 7.87686L289.27 10.0298L289.377 10.4135L289.398 10.4561L289.483 10.7759L289.995 12.5238L290.102 12.9075L290.208 13.2912H292.489L292.404 12.8862ZM288.29 6.06496H287.501V2.03617H288.29C289.036 2.03617 289.505 2.2067 289.739 2.69697C289.739 2.71829 289.761 2.71829 289.761 2.73961C289.91 3.03804 289.974 3.46437 289.974 4.03991C289.952 5.596 289.505 6.06496 288.29 6.06496Z" fill="#FEBD59"/>
<path d="M294.323 13.2676L300.611 13.2889V13.2676H294.323Z" fill="#FEBD59"/>
<path d="M300.59 11.3301V13.2699H294.323V0.181641H300.334V2.14275H296.561V5.51074H299.46V7.47184H296.561V11.3301H300.59Z" fill="#FEBD59"/>
<path d="M219.928 11.3301V13.2699H213.661V0.181641H219.694V2.14275H215.921V5.51074H218.82V7.47184H215.921V11.3301H219.928Z" fill="#FEBD59"/>
</svg>
