<svg width="190" height="190" viewBox="0 0 190 190" fill="none" xmlns="http://www.w3.org/2000/svg">
<path fill-rule="evenodd" clip-rule="evenodd" d="M44.6069 131.307H178.037L180.648 123.766H47.363L44.6069 131.307ZM53.5561 108.039L55.0337 103.849C64.6128 103.772 80.8404 100.044 88.0744 82.6579C90.3948 77.1468 90.6846 61.9187 74.2963 57.8576C65.1588 55.972 46.6671 55.9 33.6144 72.4332C30.7135 76.4943 31.1107 81.616 32.2364 83.0936C34.5567 86.1384 47.1747 83.6732 49.6409 69.4603H47.6094C47.4645 75.9866 38.7627 83.818 34.2659 82.513C32.2354 81.6426 33.5415 79.3223 34.2659 77.8723C34.9914 76.4213 42.605 63.5865 54.9332 60.2509C59.5738 59.0907 70.9597 58.1474 74.73 64.239C78.5013 70.3307 75.7453 80.1926 74.4402 84.1088C73.1351 88.025 64.868 100.062 55.8765 101.802L69.7995 63.0789L56.8917 65.1094L44.3211 99.8603C42.6641 98.4784 41.8332 96.6243 41.9534 94.6972L38.9076 96.7278C39.6804 98.6164 40.9608 100.403 43.6232 101.728L39.4882 113.116C34.122 128.2 25.1305 131.39 16.8634 131.246C8.59629 131.101 6.42084 125.3 6.85652 121.819L2.79543 123.415C1.49036 131.246 13.0931 133.277 19.3296 132.987C45.8686 130.809 51.5246 113.55 53.5561 108.039ZM160.34 120.794C168.607 120.794 172.232 117.167 174.698 113.978L172.957 112.816C172.232 113.832 171.216 114.848 170.056 115.572C168.316 116.878 166.867 115.717 167.736 113.252L184.705 65.827L171.216 68.727L156.568 109.482C155.699 112.237 152.073 120.794 160.34 120.794ZM136.259 120.728L141.916 104.484C142.86 101.728 145.253 102.453 144.744 103.832L143.294 108.11C142.642 109.995 142.569 113.983 147.137 114.128C151.704 114.273 154.243 112.316 155.477 110.648L154.462 109.415C153.157 110.866 152.431 110.358 153.011 109.053L154.897 103.904C156.347 100.277 153.954 97.8121 151.778 97.5223C149.603 97.2315 145.396 98.2468 143.367 100.277L144.382 97.5223L132.054 99.5528L124.729 120.727L136.259 120.728ZM122.267 114.927L127.996 98.2487L116.467 100.061C115.885 98.2487 113.421 97.5233 111.099 97.5233C101.818 97.7411 95.8004 106.661 95.5086 112.897C95.2188 119.134 99.6426 120.946 102.905 120.946C106.168 120.946 108.923 120.222 110.446 119.28C110.664 120.149 111.898 120.946 113.492 120.946H117.772C122.557 120.946 124.66 118.119 125.675 116.596L124.587 115.362C122.702 117.537 121.615 116.305 122.267 114.927ZM114.208 104.486L110.799 114.421C110.075 116.306 109.278 118.337 106.594 118.264C103.91 118.191 105.216 114.493 105.723 113.115C106.23 111.737 108.551 104.921 108.551 104.921C109.277 102.817 111.016 100.497 113.482 100.788C114.426 101.006 115.152 101.803 114.208 104.486Z" fill="white"/>
<path fill-rule="evenodd" clip-rule="evenodd" d="M84.6215 97.669C78.6747 97.2343 71.7867 101.005 69.0306 104.993C66.2746 108.982 64.4619 117.756 72.8009 120.367C77.5865 121.744 87.2316 121.6 91.6555 116.596L89.9147 115.218C87.0138 118.192 82.2282 120.875 76.4993 117.25C75.8468 116.741 75.4111 115.727 75.7019 114.784L76.4993 112.681C78.4569 113.841 83.9689 114.494 88.3198 113.116C92.6707 111.738 94.5554 107.169 94.6283 105.864C94.7013 104.557 94.0487 98.3935 84.6215 97.669ZM85.5697 103.889L84.1198 108.022C83.5392 109.69 82.3071 111.792 79.7689 111.648C78.4638 111.575 77.2307 110.56 77.8832 108.384L79.624 103.308C80.2765 101.641 81.5096 100.119 83.9749 100.335C85.0611 100.407 86.3672 101.567 85.5697 103.889ZM183.256 112.418C181.105 112.418 179.286 114.073 179.286 116.317C179.286 118.581 181.106 120.235 183.256 120.235C185.387 120.235 187.206 118.581 187.206 116.317C187.206 114.073 185.387 112.418 183.256 112.418ZM183.256 119.583C181.468 119.583 180.072 118.197 180.072 116.317C180.072 114.465 181.468 113.07 183.256 113.07C185.023 113.07 186.421 114.465 186.421 116.317C186.421 118.197 185.023 119.583 183.256 119.583Z" fill="white"/>
<path fill-rule="evenodd" clip-rule="evenodd" d="M183.888 116.596C184.55 116.513 185.057 116.161 185.057 115.355C185.057 114.466 184.529 114.072 183.465 114.072H181.75V118.58H182.431V116.626H183.216L184.406 118.58H185.17L183.888 116.596ZM182.43 116.043V114.647H183.359C183.834 114.647 184.341 114.749 184.341 115.308C184.341 116.001 183.826 116.043 183.246 116.043H182.43Z" fill="white"/>
</svg>
