<svg width="190" height="190" viewBox="0 0 190 190" fill="none" xmlns="http://www.w3.org/2000/svg">
<path fill-rule="evenodd" clip-rule="evenodd" d="M8.38245 109.232H174.023V118.565H8.38245V109.232ZM181.618 76.1346C181.616 75.2981 181.284 74.4962 180.692 73.9046C180.101 73.313 179.299 72.98 178.462 72.9784C176.707 72.9784 175.289 74.3958 175.305 76.1346C175.303 76.5497 175.384 76.961 175.542 77.3448C175.7 77.7286 175.932 78.0774 176.226 78.3708C176.519 78.6643 176.868 78.8967 177.252 79.0546C177.636 79.2125 178.047 79.2928 178.462 79.2908C178.877 79.2912 179.287 79.2098 179.671 79.0513C180.054 78.8929 180.402 78.6604 180.695 78.3672C180.988 78.074 181.22 77.7259 181.379 77.3428C181.537 76.9597 181.618 76.5492 181.618 76.1346ZM144.656 104.961V96.2695C148.52 97.754 152.301 98.6165 156.234 98.649C159.102 98.6668 162.208 98.447 162.327 96.2695C162.445 93.8733 156.454 93.4169 153.296 92.725C147.34 91.4248 144.116 86.9192 144.756 81.0119C145.5 74.0912 155.357 71.2731 162.327 71.4417C166.174 71.5265 170.074 71.9651 173.804 72.8256V81.5008C170.461 80.7073 167.187 79.6102 163.795 79.7285C161.483 79.7955 157.99 79.9818 157.906 82.0912C157.821 84.3701 164.369 85.1124 167.728 85.9394C174.749 87.6782 176.133 91.7787 175.762 96.0842C174.968 105.485 165.652 107.004 158.985 106.937C153.567 106.868 149.33 106.109 144.656 104.961ZM111.558 106.144L106.274 90.7506V72.1681H125.346L132.267 96.4716V72.1681H143.559V106.144H124.301L117.347 81.7206V106.144H111.558ZM93.5826 99.2227H82.1396L80.0292 106.144H67.1342L79.3707 72.1681L97.2287 72.2687L109.667 106.144H95.4722L93.5826 99.2227ZM63.8095 106.144H47.9781L35.9437 72.1681H49.7672L56.4335 92.0162L62.9825 72.1681H76.5526L63.8095 106.144ZM33.8175 72.1681L36.5016 80.1849H22.1379V85.0286H38.9323V93.2661H22.1379V98.1256H39.8766V106.144H9.39476V72.1681H33.8175Z" fill="white"/>
<path fill-rule="evenodd" clip-rule="evenodd" d="M84.7378 90.734H91.2188L88.1306 79.6113L84.7378 90.734ZM9.78308 109.856V117.148H12.754C14.9137 117.148 16.1123 115.796 16.1123 113.587C16.1123 111.257 14.8634 109.856 12.6012 109.856H9.78308Z" fill="#181616"/>
<path fill-rule="evenodd" clip-rule="evenodd" d="M11.1335 111.207H12.6358C14.0532 111.207 14.7461 111.916 14.7461 113.519C14.7461 115.036 14.0709 115.78 12.7373 115.78H11.1335V111.207Z" fill="white"/>
<path fill-rule="evenodd" clip-rule="evenodd" d="M28.9225 109.855V117.148H30.2729V114.412H31.0329C31.4548 114.412 31.7081 114.447 32.0117 114.851C32.3163 115.257 32.6869 116.016 33.092 117.148H34.7963C34.5597 116.859 34.2896 116.2 33.8845 115.239C33.7764 114.977 33.6158 114.741 33.4125 114.543C33.2092 114.346 32.9676 114.192 32.7027 114.092C33.6982 113.957 34.3064 113.179 34.3064 112.05C34.3064 110.531 33.4449 109.854 31.7071 109.854L28.9225 109.855Z" fill="#181616"/>
<path fill-rule="evenodd" clip-rule="evenodd" d="M30.2729 111.105H31.8422C32.6357 111.105 33.024 111.375 33.024 112.118C33.024 112.928 32.6022 113.3 31.6736 113.3H30.2729V111.105Z" fill="white"/>
<path fill-rule="evenodd" clip-rule="evenodd" d="M48.8553 109.855V114.43C48.8553 116.405 49.8174 117.366 51.775 117.366C53.7326 117.366 54.6946 116.405 54.6946 114.43V109.855H53.4458V114.041C53.4458 114.599 53.4458 115.053 53.2427 115.408C52.9736 115.847 52.534 116.051 51.8755 116.051C50.6602 116.051 50.2048 115.493 50.2048 114.245V109.855H48.8553ZM68.7547 109.855V117.149H70.0036L69.9533 111.916L72.4678 117.149H73.0415L75.5393 111.916L75.5058 117.149H76.7892V109.855H75.4387L72.8227 115.325L70.1721 109.855H68.7547ZM90.5949 109.855V117.149H91.9453V113.958H95.067V117.149H96.4007V109.855H95.067V112.794H91.9453V109.855H90.5949ZM109.989 109.855V117.149H114.426V115.931H111.338V113.923H113.869V112.709H111.338V111.055H114.259V109.855H109.989ZM130.848 109.756L127.59 117.149H128.875L129.499 115.712H133.296L133.938 117.149H135.439L132.098 109.756H130.848Z" fill="#181616"/>
<path fill-rule="evenodd" clip-rule="evenodd" d="M131.406 111.292L132.841 114.649H129.955L131.406 111.292Z" fill="white"/>
<path fill-rule="evenodd" clip-rule="evenodd" d="M147.998 109.855V117.148H150.969C153.129 117.148 154.326 115.796 154.326 113.586C154.326 111.257 153.094 109.855 150.816 109.855H147.998Z" fill="#181616"/>
<path fill-rule="evenodd" clip-rule="evenodd" d="M149.348 111.207H150.849C152.267 111.207 152.959 111.916 152.959 113.519C152.959 115.036 152.283 115.78 150.951 115.78H149.348V111.207Z" fill="white"/>
<path fill-rule="evenodd" clip-rule="evenodd" d="M172.267 109.941C171.685 109.744 171.076 109.641 170.461 109.636C168.706 109.636 167.745 110.429 167.745 111.831C167.745 112.524 167.997 113.063 168.488 113.417C168.96 113.754 169.568 113.906 170.31 114.093C171.087 114.295 171.594 114.398 171.594 115.089C171.594 115.765 171.053 116.169 170.057 116.169C169.229 116.169 168.403 115.882 167.745 115.341C167.83 115.78 167.862 116.286 167.88 116.895C168.521 117.199 169.297 117.367 170.158 117.367C171.913 117.367 172.842 116.524 172.842 114.987C172.842 113.688 172.133 113.166 170.733 112.862C169.619 112.608 168.96 112.456 168.96 111.715C168.96 111.107 169.417 110.837 170.344 110.837C171.103 110.837 171.762 111.004 172.352 111.36C172.297 110.889 172.268 110.415 172.267 109.941ZM181.246 76.1349C181.247 76.5008 181.176 76.8632 181.036 77.2015C180.897 77.5397 180.692 77.8471 180.433 78.1059C180.174 78.3646 179.867 78.5697 179.529 78.7093C179.191 78.849 178.828 78.9204 178.462 78.9195C178.095 78.9238 177.73 78.8549 177.389 78.7167C177.048 78.5785 176.738 78.3739 176.477 78.1147C176.216 77.8555 176.009 77.5469 175.869 77.207C175.729 76.8671 175.657 76.5026 175.659 76.1349C175.659 74.5982 176.909 73.3325 178.445 73.3325C179.187 73.3338 179.899 73.6295 180.424 74.1548C180.949 74.6801 181.245 75.3921 181.246 76.1349Z" fill="#181616"/>
<path fill-rule="evenodd" clip-rule="evenodd" d="M177.281 77.7887H177.719V76.2875H178.867C179.592 76.2875 179.39 76.9282 179.475 77.3501L179.542 77.7887H180.065C179.879 77.4851 179.946 77.4004 179.913 76.945C179.846 76.3378 179.846 76.2875 179.489 76.0677C179.829 75.7976 179.963 75.6458 179.946 75.1904C179.896 74.3969 179.372 74.2954 178.833 74.2954H177.28V77.7887H177.281Z" fill="white"/>
<path fill-rule="evenodd" clip-rule="evenodd" d="M178.849 74.6997C179.12 74.6997 179.542 74.7677 179.489 75.3582C179.439 75.8135 179.152 75.8983 178.849 75.8983H177.719V74.6997H178.849Z" fill="#181616"/>
</svg>
