<svg width="190" height="190" viewBox="0 0 190 190" fill="none" xmlns="http://www.w3.org/2000/svg">
<path d="M145.402 112.919V77.0811H151.669V90.8071H158.554V77.0811H164.954V112.919H158.554V97.1622H151.669V112.919M53.6238 99.0382L46.6721 77.0811H52.9171L57.1981 91.0277L61.9425 77.0814H67.8128L60.5966 98.3322V112.919H53.6231M90.8953 112.919H96.5226V85.8862L101.311 109.388H106.563L110.822 85.5109V112.919H117.398V77.0811H107.181L104.18 94.1173L100.693 77.0811H90.8957M174.376 77.0811H184.086L190 112.919H183.6L182.254 104.577H175.038L173.626 112.919H167.822L174.376 77.0811ZM181.283 98.5971L178.701 82.5761L176.031 98.5967L181.283 98.5971ZM126.821 77.0811H136.509L142.423 112.919H136.045L134.677 104.577H127.461L126.071 112.919H120.267L126.821 77.0811ZM128.454 98.5971H133.728L131.124 82.5761L128.454 98.5971ZM65.7606 112.919L72.3144 77.0811H82.0022L87.9162 112.919H81.5168L80.1705 104.577H72.9547L71.5645 112.919H65.7606ZM73.9473 98.5967H79.2218L76.6176 82.5761L73.9473 98.5967Z" fill="white"/>
<path d="M0 95.0108C0 83.1385 9.62127 73.4951 21.4939 73.4951C33.3658 73.4951 42.987 83.1385 42.987 95.0108C42.987 106.883 33.3658 116.505 21.4935 116.505C9.62127 116.505 0 106.883 0 95.0108ZM21.4939 115.577C32.8582 115.577 42.0827 106.375 42.0827 95.0108C42.0827 83.624 32.8582 74.422 21.4939 74.422C10.1289 74.422 0.904753 83.624 0.904753 95.0108C0.904753 106.375 10.1292 115.577 21.4939 115.577Z" fill="white"/>
<path d="M3.24365 95.0108C3.24365 84.9255 11.4093 76.7388 21.4939 76.7388C31.5784 76.7388 39.7655 84.9255 39.7655 95.0104C39.7655 105.095 31.5784 113.26 21.4935 113.26C11.409 113.26 3.24402 105.095 3.24402 95.0101L3.24365 95.0108ZM36.4554 103.286L33.4762 99.7991C33.4319 99.7547 33.3876 99.7326 33.3436 99.6886C33.2701 99.6453 33.1862 99.6224 33.1009 99.6224C33.0155 99.6224 32.9317 99.6453 32.8582 99.6886C32.3949 99.8874 31.8433 99.8874 31.3797 99.6225C31.1811 99.508 31.0094 99.3522 30.8762 99.1657C30.743 98.9791 30.6514 98.7661 30.6075 98.5411C30.4088 97.4158 29.7246 96.3785 28.6654 95.7829L27.3195 95.0104L34.9325 90.6189L33.9838 88.986L25.4435 93.9069L24.4065 93.3114V92.1417L32.9465 87.1987L32.0195 85.5657L24.4065 89.9573V88.413C24.4065 87.1772 23.855 86.0959 22.9942 85.3456C22.8212 85.1941 22.6825 85.0076 22.5874 84.7983C22.4923 84.589 22.4429 84.3618 22.4426 84.132C22.4426 83.6022 22.7071 83.1167 23.1264 82.8301C23.1949 82.7837 23.2509 82.7212 23.2894 82.6481C23.328 82.5749 23.3479 82.4934 23.3473 82.4107C23.3473 82.3442 23.3473 82.2781 23.3252 82.2342L21.8024 77.9088C21.7796 77.8448 21.7378 77.7894 21.6826 77.75C21.6274 77.7105 21.5614 77.689 21.4935 77.6882C21.4257 77.689 21.3597 77.7105 21.3044 77.75C21.2492 77.7894 21.2074 77.8448 21.1847 77.9088L19.6618 82.2342C19.6397 82.2785 19.6397 82.3446 19.6397 82.4107C19.6397 82.5873 19.7283 82.7418 19.8606 82.8301C20.0716 82.9753 20.2442 83.1697 20.3634 83.3966C20.4826 83.6234 20.5448 83.8757 20.5448 84.132C20.5448 84.6174 20.346 85.0589 19.9929 85.3456C19.1321 86.0959 18.5809 87.1772 18.5809 88.413V89.9576L10.9675 85.5661L10.0406 87.199L18.5809 92.1421V93.3117L17.5656 93.9073L9.00356 88.9864L8.05447 90.6193L15.6678 95.0112L14.3438 95.7833C13.2624 96.3792 12.6004 97.4162 12.3798 98.5419C12.336 98.7669 12.2444 98.9799 12.1112 99.1664C11.978 99.353 11.8063 99.5087 11.6077 99.6232C11.1441 99.8881 10.5921 99.8881 10.1289 99.6897C9.99661 99.6011 9.79785 99.6011 9.64342 99.6897C9.59909 99.7337 9.55513 99.7555 9.53296 99.7998L6.53202 103.287C6.44335 103.397 6.42156 103.529 6.48769 103.662C6.52403 103.72 6.57724 103.766 6.6403 103.794C6.70335 103.821 6.77329 103.829 6.84087 103.816L11.3646 102.977C11.409 102.955 11.4533 102.933 11.5191 102.911C11.6735 102.823 11.7618 102.669 11.7618 102.514C11.8061 102.006 12.0928 101.521 12.5561 101.256C12.9758 101.013 13.4612 100.969 13.8805 101.124C14.9615 101.499 16.1755 101.433 17.2568 100.815L18.5809 100.043V108.824H20.4787V98.9605L21.4935 98.3645L22.5309 98.9605V108.824H24.4065V100.042L25.7528 100.814C26.8119 101.432 28.0255 101.498 29.1069 101.124C29.5262 100.969 30.0116 101.013 30.431 101.256C30.8942 101.521 31.1809 102.006 31.2252 102.514C31.2474 102.668 31.3357 102.823 31.468 102.911C31.5345 102.933 31.5784 102.955 31.6446 102.977L36.1462 103.816C36.2788 103.838 36.411 103.794 36.4993 103.661C36.5658 103.529 36.544 103.396 36.4554 103.286Z" fill="white"/>
<path d="M21.4939 96.3789L20.3021 95.6951V94.3267L21.4935 93.6429L22.6853 94.3267V95.6951M20.4786 88.1479C20.4786 87.5741 20.9198 87.1108 21.4935 87.1108C21.6297 87.1106 21.7647 87.1373 21.8906 87.1894C22.0166 87.2414 22.131 87.3178 22.2273 87.4141C22.3237 87.5104 22.4001 87.6248 22.4522 87.7507C22.5043 87.8767 22.531 88.0116 22.5309 88.1479V91.0387L21.4935 91.6346L20.4786 91.0387M16.065 99.3141C15.5795 99.6008 14.9615 99.4242 14.6748 98.9388C14.3877 98.4533 14.5643 97.8135 15.0498 97.5486L17.5656 96.0922L18.5808 96.6881V97.8796M28.3122 98.9388C28.0255 99.4242 27.4075 99.6008 26.922 99.3141L24.4061 97.8796V96.6885L25.4435 96.0926L27.9372 97.5489C28.4448 97.8138 28.5993 98.4537 28.3122 98.9388Z" fill="white"/>
</svg>
