<svg width="190" height="190" viewBox="0 0 190 190" fill="none" xmlns="http://www.w3.org/2000/svg">
<path fill-rule="evenodd" clip-rule="evenodd" d="M62.735 93.6024C61.8952 94.6522 63.0494 95.3855 63.7838 94.6522C64.5181 93.9168 69.974 89.5108 68.9242 81.4329C68.6088 79.8588 67.4545 80.5931 66.7212 81.013C65.9878 81.4329 63.5738 83.3205 62.525 84.1594C61.4753 84.9992 61.8952 85.6281 62.2106 86.1535C63.1549 87.8331 64.8335 90.5605 62.735 93.6024ZM107.442 94.6581C106.6 95.7069 107.755 96.4422 108.488 95.7069C109.222 94.9735 114.574 91.5107 113.524 83.4329C113.209 81.8587 111.846 81.9642 111.11 82.3841C110.377 82.8031 107.963 84.5862 106.915 85.425C105.864 86.2668 106.285 86.8947 106.6 87.4181C107.755 88.7833 109.538 91.6152 107.442 94.6581ZM117.034 93.076C116.195 94.1248 117.35 94.8611 118.083 94.1248C118.817 93.3905 124.272 89.7187 123.224 81.6409C122.908 80.0677 121.755 80.0677 121.02 80.4867C120.286 80.9066 117.454 83.0051 116.404 83.844C115.356 84.6828 115.775 85.3117 116.089 85.837C117.244 87.0968 119.133 90.0342 117.034 93.076Z" fill="white"/>
<path fill-rule="evenodd" clip-rule="evenodd" d="M184.682 107.381C180.381 108.746 178.912 106.123 178.178 104.969C177.443 103.815 175.974 100.982 174.086 96.0517C172.197 91.1212 166.849 92.7999 165.694 93.3233C164.54 93.8486 161.393 95.8417 159.923 97.6249C156.776 89.966 149.85 96.3651 149.117 97.4139C148.691 98.0221 148.907 98.9881 149.747 98.7791C152.789 98.5692 153.419 104.234 153.104 106.751C148.802 109.374 146.913 106.438 145.236 104.339C143.558 102.241 140.358 97.5204 139.257 96.2606C136.948 93.4287 133.066 93.0078 131.179 93.9531C129.291 94.8984 127.296 97.0995 126.562 97.9403C125.829 98.7801 126.668 99.8269 127.611 99.0936C130.025 96.995 132.594 99.6702 133.958 101.35C128.5 103.133 126.246 107.171 126.668 108.85C124.779 109.899 122.68 109.27 122.47 106.122C122.259 102.975 123.204 98.8826 123.624 96.994C124.359 93.0068 121.002 94.2666 119.637 94.582C118.273 94.8974 115.649 96.6806 113.553 98.2537L114.076 95.4218C114.392 94.4775 113.656 93.8486 112.923 94.2676C112.19 94.6875 111.456 95.1064 110.301 95.9462C109.146 96.787 106.208 99.0936 105.788 100.773C105.685 98.5701 102.117 94.4775 101.068 93.3233C92.1503 83.6713 90.1572 81.2573 86.381 74.8591C82.6038 68.4599 83.3391 60.2766 84.8078 58.7034C85.3135 58.1613 85.1222 57.0238 84.0725 57.6546C79.2465 59.9622 77.5678 64.3692 77.3579 67.7256C76.52 78.0074 89.3193 92.169 92.9911 96.0517C81.9759 99.3035 81.4505 106.751 82.2903 110.003C78.6186 110.844 78.4086 107.591 78.5131 104.444C78.6186 101.297 80.2972 89.8615 80.6117 87.4475C80.9271 85.0355 79.9828 82.3071 76.6245 83.0424C73.2672 83.7767 70.1208 87.4475 69.3855 88.3918C68.6511 89.3361 69.3855 90.1759 70.1208 89.4406C71.694 88.2863 73.4771 89.8615 73.0582 92.168C72.6383 94.4765 71.2751 105.388 71.7995 109.479C68.2322 111.787 66.7625 109.899 66.7625 108.639C66.7625 106.75 67.3924 98.6736 67.4979 96.6796C67.6024 94.6865 66.4501 94.2656 65.1903 95.1044L58.3713 99.3015C57.427 100.036 57.7424 100.98 58.6857 100.561C59.5265 100.14 60.4698 100.771 60.4698 101.716L60.1554 111.367C55.6448 115.354 47.776 113.57 44.2087 112.101C40.118 110.527 28.9973 107.799 23.5415 106.959C25.1156 104.128 40.117 97.8328 43.2644 96.3632C52.392 91.9581 58.7912 83.9847 59.1066 83.3549C59.422 82.725 59.422 81.9906 58.1623 82.3061C50.8198 83.5648 38.4384 81.0473 33.2989 79.4722C27.8431 77.899 21.5494 79.3687 18.0866 81.2553C18.0866 81.2553 12.1064 84.4036 9.79981 85.5569C9.06447 86.3967 9.48438 87.34 10.8486 86.6067C16.8279 83.6693 27.1097 84.929 29.6272 85.6624C32.1457 86.3967 42.8465 88.7052 46.0983 88.8107C42.1121 93.6367 26.2709 100.14 17.2478 103.498C8.22466 106.854 4.34395 112.624 4.02951 113.464C3.71507 114.304 3.50413 115.353 5.4982 114.827C19.9752 112.624 34.4532 116.82 44.2097 119.339C53.9662 121.856 59.7374 115.772 61.7305 113.36C63.7226 116.296 70.6472 114.723 72.4303 112.101C74.9488 116.927 82.1878 114.933 83.6565 112.624C87.6427 117.66 97.0847 113.57 99.2887 111.994C101.491 110.422 104.639 108.324 105.478 105.386C105.478 107.588 104.638 114.198 104.533 115.772C104.429 117.346 104.115 121.752 101.701 124.376C99.2887 126.998 93.3085 128.048 89.9502 127.628C86.5939 127.208 86.2785 129.411 87.2228 130.355C88.1671 131.299 89.4258 132.768 91.2089 132.454C102.226 131.299 109.882 122.278 110.934 117.138C111.981 111.995 112.717 105.493 112.82 102.554C112.926 99.618 116.808 100.036 116.703 102.03C116.598 104.023 115.442 109.793 118.066 113.466C120.688 117.139 126.354 113.675 127.719 112.521C130.028 117.243 139.153 114.306 140.728 112.102C143.873 117.347 150.065 113.989 151.532 112.941C151.114 114.619 151.428 115.878 152.897 115.564C158.667 114.515 159.611 108.745 159.926 104.968C160.24 101.191 162.235 99.5135 164.647 99.3025C167.059 99.0926 169.787 106.856 170.417 109.059C170.942 110.633 172.726 114.094 176.608 114.094C181.539 114.094 185.104 109.582 185.524 108.849C185.942 108.117 185.942 106.857 184.682 107.381ZM94.6697 109.69C91.3124 109.794 89.5283 107.488 89.7393 104.655C89.9482 101.822 92.0468 99.409 95.2986 98.4647C97.3972 100.249 99.2858 102.242 99.3903 104.864C99.4957 107.488 98.027 109.584 94.6697 109.69ZM132.964 109.48C131.22 107.326 132.964 104.759 135.374 103.501C136.214 104.864 138.103 107.591 139.046 109.165C137.475 110.425 134.746 111.683 132.964 109.48Z" fill="white"/>
<path fill-rule="evenodd" clip-rule="evenodd" d="M182.874 97.1133C181.226 97.1133 179.834 98.3809 179.834 100.098C179.834 101.833 181.226 103.098 182.874 103.098C184.505 103.098 185.896 101.833 185.896 100.098C185.897 98.3819 184.506 97.1133 182.874 97.1133ZM182.874 102.6C181.503 102.6 180.435 101.54 180.435 100.099C180.435 98.6815 181.503 97.614 182.874 97.614C184.228 97.614 185.294 98.6825 185.294 100.099C185.294 101.54 184.228 102.6 182.874 102.6Z" fill="white"/>
<path fill-rule="evenodd" clip-rule="evenodd" d="M183.358 100.313C183.865 100.25 184.253 99.9797 184.253 99.3636C184.253 98.6825 183.849 98.3818 183.033 98.3818H181.72V101.834H182.242V100.335H182.844L183.753 101.834H184.34L183.358 100.313ZM182.242 99.8919V98.8244H182.954C183.318 98.8244 183.707 98.9033 183.707 99.3311C183.707 99.8614 183.311 99.8919 182.867 99.8919H182.242Z" fill="white"/>
</svg>
