<svg width="190" height="190" viewBox="0 0 190 190" fill="none" xmlns="http://www.w3.org/2000/svg">
<path fill-rule="evenodd" clip-rule="evenodd" d="M179.729 111.16C178.763 110.739 178.521 110.195 178.462 109.231L175.81 79.0187C175.749 78.3553 175.929 77.9936 176.232 77.6919C177.197 76.9684 176.654 75.5815 175.689 75.5815H164.953C163.507 75.5815 163.687 77.4504 164.351 77.8132C164.953 78.1749 164.532 79.5017 164.23 80.1651L149.094 108.328C148.854 108.689 148.492 109.414 147.768 110.016C147.406 110.259 145.899 110.861 145.717 109.594L143.003 79.0197C142.942 78.3563 143.184 77.9945 143.486 77.6929C144.391 76.9694 143.847 75.5825 142.943 75.5825H132.207C130.761 75.5825 130.88 77.4514 131.545 77.8142C132.207 78.1759 131.726 79.5027 131.424 80.166L123.463 101.453L121.474 79.0207C121.413 78.3573 121.593 77.9955 121.896 77.6939C122.861 76.9704 122.318 75.5835 121.353 75.5835H111.223C109.775 75.5835 109.896 77.4524 110.558 77.8151C111.223 78.1769 110.679 79.5037 110.377 80.167L99.4632 109.174C99.2207 110.32 98.3158 110.077 98.1966 109.294L95.5421 79.0216C95.4819 78.3583 95.6633 77.9965 95.9649 77.6949C96.9299 76.9714 96.3868 75.5845 95.4218 75.5845H84.7486C83.3006 75.5845 83.482 77.4534 84.0852 77.8161C84.7486 78.1779 84.3267 79.5046 84.0251 80.168L68.8286 108.331C68.3465 109.114 67.623 111.104 63.8232 111.104H59.421C57.2495 111.104 56.9489 109.476 57.3106 108.089L64.0045 80.65H67.8635C71.4219 80.65 71.8438 83.7254 71.8438 85.5352C71.8438 87.2838 73.8339 86.9822 74.1356 85.7165L75.7038 78.9625C76.0054 78.1789 76.1257 77.6357 76.7891 77.1537C77.5126 76.6707 77.3923 75.5855 76.0054 75.5855H43.6202C42.2934 75.5855 42.4137 76.8521 42.7153 77.274C43.017 77.6357 43.017 78.239 42.8967 78.8422L41.3285 85.5963C40.9066 87.7067 43.1382 87.2247 43.6202 86.0182C44.8868 82.4608 48.5655 80.651 50.8562 80.651H53.5699L47.0564 107.185C45.7897 112.793 41.1461 111.888 39.2171 112.01C37.3482 112.07 37.6488 114.663 38.8553 114.663H72.5052C73.2888 114.663 74.6166 114.301 74.7368 113.336C74.8581 112.552 74.5555 111.647 73.5915 111.164C72.5663 110.743 73.0483 109.9 73.35 109.235L76.0636 103.927H86.6767L87.1597 109.114C87.2198 110.019 86.9182 110.924 86.0133 111.045C85.0483 111.164 84.2646 111.888 84.2045 113.034C84.1434 113.939 84.5061 114.663 85.8329 114.663H103.985C104.768 114.663 106.095 114.301 106.216 113.336C106.276 112.552 105.974 111.647 105.009 111.164C103.985 110.743 103.623 109.9 103.985 109.235L111.765 88.6115L113.694 110.019C113.754 110.803 113.512 111.164 113.092 111.467C112.668 111.829 112.368 112.372 112.368 113.034C112.307 113.939 112.669 114.663 113.994 114.663H122.619C123.462 114.663 124.73 114.301 124.851 113.336C124.911 112.914 124.851 112.371 124.548 111.95C124.429 111.708 124.308 110.864 124.548 110.322L132.749 88.4913L134.559 109.114C134.68 110.019 134.378 110.924 133.414 111.045C132.509 111.164 131.725 111.888 131.664 113.034C131.604 113.939 131.907 114.663 133.292 114.663H152.772C153.556 114.663 154.882 114.301 155.004 113.336C155.064 112.552 154.763 111.647 153.796 111.164C152.772 110.743 153.253 109.9 153.615 109.235L156.269 103.927H166.883L167.364 109.114C167.425 110.019 167.183 110.924 166.219 111.045C165.254 111.164 164.471 111.888 164.409 113.034C164.349 113.939 164.712 114.663 166.037 114.663H178.702C179.485 114.663 180.812 114.301 180.933 113.336C180.994 112.549 180.693 111.644 179.729 111.16Z" fill="white"/>
<path fill-rule="evenodd" clip-rule="evenodd" d="M78.0547 99.7639L84.929 86.3159L86.1956 99.7639H78.0547ZM158.682 99.7639L165.618 86.3159L166.822 99.7639H158.682Z" fill="#181616"/>
<path fill-rule="evenodd" clip-rule="evenodd" d="M183.949 75.3408C182.201 75.3408 180.753 76.6676 180.753 78.4763C180.753 80.3452 182.201 81.673 183.949 81.673C185.698 81.673 187.207 80.3462 187.207 78.4763C187.207 76.6666 185.699 75.3408 183.949 75.3408Z" fill="white"/>
<path fill-rule="evenodd" clip-rule="evenodd" d="M183.949 81.1297C182.501 81.1297 181.417 80.0444 181.417 78.4762C181.417 76.9691 182.502 75.8828 183.949 75.8828C185.396 75.8828 186.542 76.9691 186.542 78.4762C186.542 80.0444 185.397 81.1297 183.949 81.1297Z" fill="#181616"/>
<path fill-rule="evenodd" clip-rule="evenodd" d="M185.456 77.6916C185.456 76.9681 185.034 76.6665 184.129 76.6665H182.743V80.3451H183.286V78.7769H183.949L184.915 80.3451H185.517L184.491 78.7168C185.035 78.6566 185.456 78.356 185.456 77.6916Z" fill="white"/>
<path fill-rule="evenodd" clip-rule="evenodd" d="M183.286 78.2948V77.1494H184.07C184.432 77.1494 184.854 77.2095 184.854 77.6916C184.854 78.2347 184.432 78.2948 183.949 78.2948H183.286Z" fill="#181616"/>
<path fill-rule="evenodd" clip-rule="evenodd" d="M2.79346 114.659L12.2611 75.5815H30.8948C30.5331 77.753 27.2763 83.1192 23.4774 86.7978C28.0609 84.2054 32.0402 80.9487 35.9002 75.5815H37.8904L28.543 114.659H26.0718C24.6248 110.617 22.0915 105.793 18.7145 103.442C21.1265 107.121 21.368 110.015 21.7308 114.659H2.79346Z" fill="white"/>
<path fill-rule="evenodd" clip-rule="evenodd" d="M32.1023 83.3003C24.8051 90.5374 18.1122 91.3811 14.7342 91.2609L15.096 89.6325C20.7647 87.461 26.3724 81.19 27.0969 78.7168L27.5188 77.4502H13.8904L5.32666 112.789H19.3778L19.3177 111.702C18.7145 104.225 14.8554 101.332 12.6238 100.064L13.1058 98.0139C21.85 100.124 25.5286 108.144 25.9505 109.109L27.157 111.824L34.6345 80.8873L32.1023 83.3003Z" fill="#181616"/>
<path fill-rule="evenodd" clip-rule="evenodd" d="M15.3975 79.4414H24.5034C22.8149 82.0348 18.2925 86.4369 13.9495 87.9441L13.3463 88.0643L15.3975 79.4414ZM17.2073 110.799H7.85986L10.332 101.03L10.9954 101.452C12.744 102.416 16.3625 104.407 17.2073 110.799ZM26.4936 105.914C24.5034 102.659 20.1614 97.2915 12.5626 95.9036L11.4774 95.6631L12.261 93.0106L13.3463 93.1308C16.1802 93.4926 23.2368 93.4926 31.0761 86.9199L26.4936 105.914Z" fill="white"/>
</svg>
